{
    "asset" : {
        "generator" : "Khronos glTF Blender I/O v1.5.17",
        "version" : "2.0"
    },
    "scene" : 0,
    "scenes" : [
        {
            "name" : "Scene",
            "nodes" : [
                0,
                1
            ]
        }
    ],
    "nodes" : [
        {
            "mesh" : 0,
            "name" : "Head_female",
            "rotation" : [
                0.7071068286895752,
                0,
                0,
                0.7071067094802856
            ]
        },
        {
            "mesh" : 1,
            "name" : "eyeball_f",
            "rotation" : [
                0.7071068286895752,
                0,
                0,
                0.7071067094802856
            ]
        }
    ],
    "materials" : [
        {
            "doubleSided" : true,
            "name" : "Default OBJ",
            "pbrMetallicRoughness" : {
                "baseColorFactor" : [
                    0.17286162078380585,
                    0.3077056109905243,
                    0.8000000715255737,
                    1
                ],
                "metallicFactor" : 0,
                "roughnessFactor" : 0.5
            }
        }
    ],
    "meshes" : [
        {
            "name" : "Head_female",
            "primitives" : [
                {
                    "attributes" : {
                        "POSITION" : 0,
                        "NORMAL" : 1,
                        "TEXCOORD_0" : 2
                    },
                    "indices" : 3,
                    "material" : 0
                }
            ]
        },
        {
            "name" : "eyeball_f",
            "primitives" : [
                {
                    "attributes" : {
                        "POSITION" : 4,
                        "NORMAL" : 5,
                        "TEXCOORD_0" : 6
                    },
                    "indices" : 7,
                    "material" : 0
                }
            ]
        }
    ],
    "accessors" : [
        {
            "bufferView" : 0,
            "componentType" : 5126,
            "count" : 18081,
            "max" : [
                0.14177599549293518,
                0.1257449984550476,
                0.10085999965667725
            ],
            "min" : [
                -0.14177599549293518,
                -0.10194899886846542,
                -0.28232699632644653
            ],
            "type" : "VEC3"
        },
        {
            "bufferView" : 1,
            "componentType" : 5126,
            "count" : 18081,
            "type" : "VEC3"
        },
        {
            "bufferView" : 2,
            "componentType" : 5126,
            "count" : 18081,
            "type" : "VEC2"
        },
        {
            "bufferView" : 3,
            "componentType" : 5123,
            "count" : 27504,
            "type" : "SCALAR"
        },
        {
            "bufferView" : 4,
            "componentType" : 5126,
            "count" : 6376,
            "max" : [
                0.047155000269412994,
                0.09345799684524536,
                -0.16254399716854095
            ],
            "min" : [
                -0.047155000269412994,
                0.06440600007772446,
                -0.192112997174263
            ],
            "type" : "VEC3"
        },
        {
            "bufferView" : 5,
            "componentType" : 5126,
            "count" : 6376,
            "type" : "VEC3"
        },
        {
            "bufferView" : 6,
            "componentType" : 5126,
            "count" : 6376,
            "type" : "VEC2"
        },
        {
            "bufferView" : 7,
            "componentType" : 5123,
            "count" : 9792,
            "type" : "SCALAR"
        }
    ],
    "bufferViews" : [
        {
            "buffer" : 0,
            "byteLength" : 216972,
            "byteOffset" : 0
        },
        {
            "buffer" : 0,
            "byteLength" : 216972,
            "byteOffset" : 216972
        },
        {
            "buffer" : 0,
            "byteLength" : 144648,
            "byteOffset" : 433944
        },
        {
            "buffer" : 0,
            "byteLength" : 55008,
            "byteOffset" : 578592
        },
        {
            "buffer" : 0,
            "byteLength" : 76512,
            "byteOffset" : 633600
        },
        {
            "buffer" : 0,
            "byteLength" : 76512,
            "byteOffset" : 710112
        },
        {
            "buffer" : 0,
            "byteLength" : 51008,
            "byteOffset" : 786624
        },
        {
            "buffer" : 0,
            "byteLength" : 19584,
            "byteOffset" : 837632
        }
    ],
    "buffers" : [
        {
            "byteLength" : 857216,
            "uri" : "data:application/octet-stream;base64,"
        }
    ]
}
