{
    "asset" : {
        "generator" : "Khronos glTF Blender I/O v1.5.17",
        "version" : "2.0"
    },
    "scene" : 0,
    "scenes" : [
        {
            "name" : "Scene",
            "nodes" : [
                0,
                1,
                2
            ]
        }
    ],
    "nodes" : [
        {
            "mesh" : 0,
            "name" : "eyeball_f",
            "rotation" : [
                0.7071068286895752,
                0,
                0,
                0.7071067094802856
            ]
        },
        {
            "mesh" : 1,
            "name" : "Head_female.001",
            "rotation" : [
                0.7071068286895752,
                0,
                0,
                0.7071067094802856
            ]
        },
        {
            "mesh" : 2,
            "name" : "eyeball_f.001",
            "rotation" : [
                0.7071068286895752,
                0,
                0,
                0.7071067094802856
            ]
        }
    ],
    "materials" : [
        {
            "doubleSided" : true,
            "name" : "Default OBJ",
            "pbrMetallicRoughness" : {
                "baseColorFactor" : [
                    0.17286162078380585,
                    0.3077056109905243,
                    0.8000000715255737,
                    1
                ],
                "metallicFactor" : 0,
                "roughnessFactor" : 0.5
            }
        },
        {
            "doubleSided" : true,
            "name" : "Default OBhead",
            "pbrMetallicRoughness" : {
                "baseColorFactor" : [
                    0.17788845300674438,
                    0.4507858455181122,
                    0.799102783203125,
                    1
                ],
                "metallicFactor" : 0,
                "roughnessFactor" : 0.5
            }
        }
    ],
    "meshes" : [
        {
            "name" : "eyeball_f",
            "primitives" : [
                {
                    "attributes" : {
                        "POSITION" : 0,
                        "NORMAL" : 1,
                        "TEXCOORD_0" : 2
                    },
                    "indices" : 3,
                    "material" : 0
                }
            ]
        },
        {
            "name" : "Head_female.001",
            "primitives" : [
                {
                    "attributes" : {
                        "POSITION" : 4,
                        "NORMAL" : 5,
                        "TEXCOORD_0" : 6
                    },
                    "indices" : 7,
                    "material" : 1
                }
            ]
        },
        {
            "name" : "eyeball_f.001",
            "primitives" : [
                {
                    "attributes" : {
                        "POSITION" : 8,
                        "NORMAL" : 9,
                        "TEXCOORD_0" : 10
                    },
                    "indices" : 3,
                    "material" : 1
                }
            ]
        }
    ],
    "accessors" : [
        {
            "bufferView" : 0,
            "componentType" : 5126,
            "count" : 6376,
            "max" : [
                0.047155000269412994,
                0.09345799684524536,
                -0.16254399716854095
            ],
            "min" : [
                -0.047155000269412994,
                0.06440600007772446,
                -0.192112997174263
            ],
            "type" : "VEC3"
        },
        {
            "bufferView" : 1,
            "componentType" : 5126,
            "count" : 6376,
            "type" : "VEC3"
        },
        {
            "bufferView" : 2,
            "componentType" : 5126,
            "count" : 6376,
            "type" : "VEC2"
        },
        {
            "bufferView" : 3,
            "componentType" : 5123,
            "count" : 9792,
            "type" : "SCALAR"
        },
        {
            "bufferView" : 4,
            "componentType" : 5126,
            "count" : 18081,
            "max" : [
                0.14177599549293518,
                0.1257449984550476,
                0.10085999965667725
            ],
            "min" : [
                -0.14177599549293518,
                -0.10194899886846542,
                -0.28232699632644653
            ],
            "type" : "VEC3"
        },
        {
            "bufferView" : 5,
            "componentType" : 5126,
            "count" : 18081,
            "type" : "VEC3"
        },
        {
            "bufferView" : 6,
            "componentType" : 5126,
            "count" : 18081,
            "type" : "VEC2"
        },
        {
            "bufferView" : 7,
            "componentType" : 5123,
            "count" : 27504,
            "type" : "SCALAR"
        },
        {
            "bufferView" : 8,
            "componentType" : 5126,
            "count" : 6376,
            "max" : [
                0.047155000269412994,
                0.09345799684524536,
                -0.16254399716854095
            ],
            "min" : [
                -0.047155000269412994,
                0.06440600007772446,
                -0.192112997174263
            ],
            "type" : "VEC3"
        },
        {
            "bufferView" : 9,
            "componentType" : 5126,
            "count" : 6376,
            "type" : "VEC3"
        },
        {
            "bufferView" : 10,
            "componentType" : 5126,
            "count" : 6376,
            "type" : "VEC2"
        }
    ],
    "bufferViews" : [
        {
            "buffer" : 0,
            "byteLength" : 76512,
            "byteOffset" : 0
        },
        {
            "buffer" : 0,
            "byteLength" : 76512,
            "byteOffset" : 76512
        },
        {
            "buffer" : 0,
            "byteLength" : 51008,
            "byteOffset" : 153024
        },
        {
            "buffer" : 0,
            "byteLength" : 19584,
            "byteOffset" : 204032
        },
        {
            "buffer" : 0,
            "byteLength" : 216972,
            "byteOffset" : 223616
        },
        {
            "buffer" : 0,
            "byteLength" : 216972,
            "byteOffset" : 440588
        },
        {
            "buffer" : 0,
            "byteLength" : 144648,
            "byteOffset" : 657560
        },
        {
            "buffer" : 0,
            "byteLength" : 55008,
            "byteOffset" : 802208
        },
        {
            "buffer" : 0,
            "byteLength" : 76512,
            "byteOffset" : 857216
        },
        {
            "buffer" : 0,
            "byteLength" : 76512,
            "byteOffset" : 933728
        },
        {
            "buffer" : 0,
            "byteLength" : 51008,
            "byteOffset" : 1010240
        }
    ],
    "buffers" : [
        {
            "byteLength" : 1061248,
            "uri" : "data:application/octet-stream;base64,"
        }
    ]
}
